<?xml version="1.0" standalone="no"?>
<!DOCTYPE svg PUBLIC "-//W3C//DTD SVG 20010904//EN"
 "http://www.w3.org/TR/2001/REC-SVG-20010904/DTD/svg10.dtd">
<svg version="1.0" xmlns="http://www.w3.org/2000/svg"
 width="250.000000pt" height="250.000000pt" viewBox="0 0 250.000000 250.000000"
 preserveAspectRatio="xMidYMid meet">
<metadata>
Created by potrace 1.10, written by Peter Selinger 2001-2011
</metadata>
<g transform="translate(0.000000,250.000000) scale(0.050000,-0.050000)"
fill="#ffffff" stroke="none">
<path d="M4163 4705 c-55 -63 -135 -157 -177 -209 -91 -113 -329 -391 -441
-516 -78 -87 -82 -89 -119 -55 -22 19 -46 35 -54 35 -8 0 -61 22 -118 49
-1256 592 -2858 -507 -2673 -1834 43 -313 166 -650 277 -761 39 -39 24 -52
-43 -33 -441 127 -839 -425 -626 -866 281 -580 1130 -337 1086 310 l-10 134
73 -57 c245 -195 682 -340 1072 -356 1145 -47 2137 969 1962 2009 -18 105 -30
192 -27 194 3 1 41 14 85 29 44 15 127 48 184 74 58 26 128 53 157 60 73 18
118 93 90 147 -33 61 -91 52 -343 -56 l-227 -98 -28 83 c-65 193 -207 400
-424 616 l-213 214 169 196 c93 108 224 263 292 345 68 82 156 186 195 230 86
96 111 161 77 202 -44 53 -96 30 -196 -86z m-1380 -736 c249 -47 577 -159 577
-198 0 -7 -70 -93 -155 -192 -85 -99 -213 -251 -285 -337 -71 -85 -241 -285
-378 -444 -136 -158 -311 -364 -390 -456 -78 -92 -189 -220 -247 -285 -84 -94
-105 -130 -105 -186 0 -124 52 -117 517 68 227 91 503 200 613 244 110 43 218
87 240 97 22 10 193 77 380 150 187 72 358 139 380 149 143 66 253 104 266 92
37 -38 13 -580 -34 -741 -358 -1235 -1961 -1635 -2928 -731 -204 191 -420 552
-447 750 -5 33 -16 84 -25 111 -32 99 -19 522 21 680 150 598 701 1113 1297
1212 28 5 86 17 130 26 131 28 394 24 573 -9z m854 -378 c175 -138 334 -344
444 -575 80 -169 88 -157 -166 -255 -223 -86 -407 -161 -528 -214 -35 -15 -70
-27 -78 -27 -12 0 -153 -56 -399 -160 -22 -10 -94 -36 -160 -59 -66 -23 -156
-59 -200 -79 -194 -90 -430 -179 -417 -156 8 13 66 83 129 154 150 170 579
671 716 839 60 72 145 172 190 223 45 51 141 161 212 244 155 181 120 173 257
65z m-2827 -2373 c401 -110 409 -718 12 -855 -339 -117 -646 269 -489 616 94
211 266 297 477 239z"/>
</g>
</svg>
